<svg id="F-3_F-4_F-5" data-name="F-3 F-4 F-5" xmlns="http://www.w3.org/2000/svg" width="2160" height="2160" viewBox="0 0 2160 2160">
  <defs>
    <style>
      .cls-1, .cls-2, .cls-3, .cls-4 {
        fill: none;
        fill-rule: evenodd;
      }

      .cls-1, .cls-2, .cls-4 {
        stroke: #f4c083;
      }

      .cls-1 {
        stroke-width: 2px;
      }

      .cls-2 {
        stroke-width: 4px;
      }

      .cls-4 {
        stroke-width: 6px;
      }
    </style>
  </defs>
  <path id="F-3.1" class="cls-1" d="M1212,413l80,87-15,12-80-85-16,11,80,86-15,12-80-84-15,11,78,86-17,12-74-88-14,12,13,17,106-86,14,12-107,88,12,16,109-88,13,14-109,89,14,15,108-89"/>
  <path id="F-3" class="cls-2" d="M1229.32,399.853l82.31,86.346-111.99,89.3-75.35-88.42Z"/>
  <path id="F-4.1" class="cls-1" d="M1301,509l91,103-15,12-92-103-15,12,92,104-16,12-92-104-15,14,92,102-15,12-93-101-16,13,13,14,109-90,13,16-108,88,13,14,108-87,12,15-107,87,13,14,107-86,13,14-106,87"/>
  <path id="F-4" class="cls-2" d="M1317,496l89,105-105,85-94-101Z"/>
  <path id="F-5.1" class="cls-1" d="M1398,618l92,101-14,13-94-102-14,13,93,102-15,12-94-103-15,14,93,102-15,13-93-103-14,13,12,15,108-90,13,14-107,90,13,15,108-89,12,14-107,90,13,14,107-88,13,14-107,89"/>
  <path id="F-5" class="cls-2" d="M1416,602l89,105-106,90-92-103Z"/>
  <path id="MemoryF-3.1" class="cls-1" d="M1344,843L1129,602l-21,20,20,21,40-35,22,24-41,34,21,24,42-34,22,25-41,34,23,24,40-35,24,25-42,35,23,24,41-35,22,24-42,35,24,24,39-33"/>
  <path id="MemoryF-3" class="cls-2" d="M1147,586l219,237-39,36L1107,622Z"/>
  <path id="MemoryF-2.1" class="cls-1" d="M1299,884L1081,641l-21,15,22,25,40-32,22,25-40,33,22,24,38-32,21,23-39,32,21,24,41-32,22,24-41,34,22,25,40-35,22,25-40,34,22,24,41-33"/>
  <path id="MemoryF-2" class="cls-2" d="M1317,868l-40,35L1060,657l40-31Z"/>
  <path id="MemoryF-1.1" class="cls-1" d="M1250,922L1027,676l-22,20,24,27,42-34,23,25-41,33,21,24,44-32,23,25-43,33,21,24,40-35,23,24-42,34,22,23,40-33,24,24-41,33,22,24,42-33"/>
  <path id="MemoryF-1" class="cls-2" d="M1046,662l223,242-40,36L1005,696Z"/>
  <path class="cls-2" d="M1089,518l53,56L999,694l-58-58Z"/>
  <path class="cls-1" d="M1117,548L972,665l-32-30,34-24,52,60,28-24-51-61,31-23,47,60,29-24-48-59"/>
  <path class="cls-1" d="M1202,967l-92-98-14,13,92,101-14,12-93-100-14,14,94,101-13,15-91-108-11,8,17,20,76-74,11,11-75,80,13,15,75-79,13,14-75,80,12,16,76-81,13,13-77,84"/>
  <path id="F-G" class="cls-2" d="M1125,856l90,98-79,83-90-111Z"/>
  <path class="cls-1" d="M1113,1054l-85-108-14,13,84,109-16,14L999,972l-15,16,85,108-16,13-10-13,74-68-11-16-76,69-12-16,75-69-12-14-74,67-13-16,75-67-12-16-75,67"/>
  <path id="F-F" class="cls-2" d="M1042,931l88,110-77,69-84-109Z"/>
  <path class="cls-1" d="M1034,1127l-86-107-16,12,89,110-16,13-87-110-14,14,86,110-15,14-13-14,75-67-12-17-74,68-12-16,74-67-12-15-74,65-12-16,74-65-13-17-73,67"/>
  <path id="F-E" class="cls-2" d="M963,1005l85,110-73,69-86-113Z"/>
  <path class="cls-1" d="M861,1089l88,114-17,11-89-116-16,9,89,119-16,11-90-119-17,8,18,28,81-60,11,16-80,59,12,16,81-60,12,16-81,61,12,15,82-60,12,15-81,61"/>
  <path id="F-D" class="cls-2" d="M879,1078l89,112-86,61-90-124Z"/>
  <path class="cls-1" d="M862,1264l-93-124-18,10,94,125-15,12-97-128-17,9,98,131-16,9-12-14,80-57-12-16-80,57-11-16,80-57-13-16-78,57-13-16,80-56-12-17-80,58-11-17,79-56"/>
  <path id="F-C" class="cls-2" d="M787,1130l91,124-80,56-99-133Z"/>
  <path class="cls-1" d="M777,1325L675,1190l-19,8,104,139-16,11L638,1209l-15,10,105,139-16,12-12-14,81-57-13-16-79,57-12-16,80-57-12-17-80,59-12-16,81-58-12-15-80,57-12-15,80-59-13-16-80,59"/>
  <path id="F-B" class="cls-2" d="M691,1179l-87,51,107,142,82-57Z"/>
  <path class="cls-1" d="M663,1350l-83-108-19,8,86,114-15,12-88-116-18,10,91,118-15,14-12-19,77-59-12-15-74,58-10-18,72-57-11-16-72,56-12-17,72-54-11-16-70,53"/>
  <path id="F-A" class="cls-2" d="M598,1231l-76,41,80,130,76-63Z"/>
  <path class="cls-3" d="M1123,847"/>
  <path class="cls-1" d="M551,1373l-207,66-21-36,28-9,22,74,38-11-23-75,38-12,22,77,38-11-23-78,38-13,23,80"/>
  <path id="M-A" class="cls-2" d="M539,1333l-216,69,42,68,199-58Z"/>
  <path class="cls-1" d="M494,1326l-11-37-38,9,13,40-39,12-11-39-37,11,11,40-39,11-10-38-26,8-12,7,18,35-34,18-18-34-35,16,18,37-35,18-18-33-36,18,18,34-23,12-10,14-20-41-37,42,32,40,29-24,25,28-29,26,24,29,31-23"/>
  <path id="M-C" class="cls-2" d="M532,1314l-12-38-212,66L120,1444l-38,43,110,130,31-24-87-103,15-19,167-89Z"/>
  <path class="cls-1" d="M338,1442l-138,74-21-37,38-20,37,75,34-21-37-72,34-19,38,72"/>
  <path id="M-B" class="cls-2" d="M316,1403l43,70-138,80-41-73Z"/>
  <path class="cls-1" d="M1768,1042L1506,756l-23,20,28,32,50-42,19,18-51,45,17,19,51-44,18,19-50,44,16,18,51-40,19,17-52,43,18,19,52-41,17,19-52,42,17,19,53-42,17,19-51,45,17,18,51-43,19,19-51,44,16,20,52-43"/>
  <path id="BLK6" class="cls-2" d="M1533,731l264,293-58,37L1483,777Z"/>
  <path class="cls-1" d="M1704,1084L1452,808l-24,21,21,23,52-44,18,21-51,41,16,21,52-43,18,19-52,43,16,19,54-42,16,19-52,42,18,20,51-42,18,19-51,42,18,19,50-41,18,20-52,40,19,21,49-40,18,18-50,41,20,21,47-41"/>
  <path id="BLK7" class="cls-2" d="M1729,1067l-52,35L1430,830l51-47Z"/>
  <path class="cls-1" d="M1613,1147L1366,877l-23,18,18,22,46-41,19,21-48,39,17,19,47-39,19,19-48,38,17,21,49-40,18,19-49,40,18,20,47-40,18,19-47,40,18,19,49-40,17,20-49,39,18,21,49-41,18,19-50,41,17,19,49-40"/>
  <path id="BLK8" class="cls-2" d="M1392,860l246,268-49,41L1342,897Z"/>
  <path class="cls-1" d="M1565,1208L1308,925l-24,20,21,25,49-40,16,20-48,40,17,19,49-41,18,20-48,40,16,21,50-42,18,19-50,41,17,20,51-40,18,19-51,40,18,21,49-42,17,19-48,42,17,21,49-44,19,20-51,42,17,20,51-42"/>
  <path id="BLK9" class="cls-2" d="M1333,907l250,275-37,57L1283,946Z"/>
  <path class="cls-1" d="M1460,1203L1251,975l-21,22,22,24,45-42,17,18-44,43,17,21,45-47,19,22-46,45,17,19,46-44,17,18-43,45,17,18,44-43,16,19-43,44,18,20,44-45,18,21-44,43"/>
  <path id="BLK10" class="cls-2" d="M1276,953l207,230-45,40L1230,997Z"/>
  <path class="cls-1" d="M1216,1009l66,74-4,4-68-73-5,6,67,72-4,4-67-72-6,5,67,71-4,5-67-72-5,5,68,71-5,5-67-73-4,4,11,13,46-43,11,12-46,43,11,12,47-42,11,12-47,43,11,11,46-42"/>
  <path id="BLKG" class="cls-2" d="M1223,1002l68,74-48,42-65-72Z"/>
  <path class="cls-1" d="M1229,1136l-70-75-4,5,69,75-6,5-68-76-6,5,70,76-6,5-67-76-5,4,67,75-5,5-65-76-7,8,67,73-5,4-68-72-5,5,68,71-3,5-71-71-4,4,68,71-4,5-68-71-4,5,67,70-9,7-62-72-4,5,10,11,82-81,10,12-82,83,9,12,84-82,12,12-84,84,9,11,84-81,13,15-4,2-70-77"/>
  <path id="BLKD" class="cls-2" d="M1169,1050l68,81-88,78-60-75Z"/>
  <path class="cls-1" d="M1140,1216l-63-73-4,5,64,72-5,4-65-72-4,5,65,71-5,5-66-71-4,5,65,70-6,4-64-70-5,5,65,69-5,6-65-71-4,4,64,71-5,4-64-70-5,5,64,69-5,6-64-72-4,4,21,27,42,46-4,4-9-10,71-65-11-13-70,65-10-14,70-63-11-12-69,63-10-14,68-62"/>
  <path id="BLKA" class="cls-2" d="M1082,1140l63,73-72,65-57-76Z"/>
  <path class="cls-1" d="M1066,1288l-43-46-5,4,10,11,10-10,12,15-13,13,11,13,14-12,9,10-16,11-20-22,4-4-22-25,10-9,23,26-8,8,18,21"/>
  <path id="PHASE1" class="cls-2" d="M1071,1286l-28,20-26-36-18-57,11-9,14,28Z"/>
  <path class="cls-1" d="M1059,1310l69,76,4-5-69-76,5-5,68,75,4-5-68-75,5-3,12,13-21,18,12,13,20-19,13,12-22,19,10,11,21-16,10,12-18,18,9,10"/>
  <path id="PHASE2" class="cls-2" d="M1076,1292l-26,26,28,34,50,35,14-20-46-56Z"/>
  <path class="cls-1" d="M1149,1355l-61-73,4-5,62,75,4-4-62-77,6-5,61,76,6-4-63-76,4-4,64,75,5-4-63-76,4-4,62,74,6-3-65-74,4-5,66,74,5-4-66-75,4-5,66,75,6-4-67-75,4-6,69,76,4-6-12-11-70,67-10-10,71-68-13-13-68,69-11-12,69-70-11-12-69,68"/>
  <path id="BLKB" class="cls-2" d="M1082,1285l63,74,73-67-67-76Z"/>
  <path class="cls-1" d="M1220,1303l38,42-9,1-34-38-4,4,27,33-13-2-20-26-7,6,11,17-6-1,32-29,12,12-27,21,26,3,13-11"/>
  <path id="BLKC" class="cls-2" d="M1225,1297l44,51-84-12Z"/>
  <path class="cls-1" d="M1292,1351l-56-60,5-6,59,67,9-1-64-70,5-4,68,76,5-5-68-75,4-4,68,75,5-5-69-76,6-4,67,74,5-3-68-76,6-4,67,75,5-4-67-76,3-5,68,75,6-5-69-75,5-5,67,75,5-4-67-76,5-3,67,74,4-4-68-75,6-6,12,14-89,81,11,14,89-83,11,11-88,83,12,12,87-82,11,11-84,80"/>
  <path id="BLKF" class="cls-2" d="M1233,1295l47,55,39,3,65-67-67-75Z"/>
  <path class="cls-1" d="M1306,1210l-68-73-5,5,67,73-4,4-68-73-4,4,67,73-5,6-68-73-5,4,68,73-4,5-68-74-5,6,69,72-6,4-69-73-4,5,68,73-5,5-67-74-6,7,69,72-5,5-68-74-6,6,69,71-6,5-67-72-5,4,68,73-5,5-67-73-4,3,12,12,88-82,11,12-90,83,13,11,87-82,11,14-88,81,12,13,87-82"/>
  <path id="BLKE" class="cls-2" d="M1246,1129l-88,85,66,73,87-82Z"/>
  <path class="cls-1" d="M1294,1086l67,74-6,5-66-74-4,4,66,74-5,5-66-75-4,5,66,74-6,5-65-74-5,4,67,74-5,5-67-75-4,7,66,74-4,3-13-14,48-43-13-13-45,45-11-13,46-44-12-13-46,44-12-12,47-42"/>
  <path class="cls-1" d="M1365,1170l66,72-4,3-66-70-5,4,67,72-6,4-66-72-6,4,67,73-4,4-68-74-5,5,68,72-5,5-66-71-6,3,67,73-4,5-13-13,49-47-11-11-49,46-11-13,49-46-12-11-47,46-12-13,50-44"/>
  <path id="BLKH" class="cls-2" d="M1297,1083l-44,44,66,74,45-45Z"/>
  <path id="BLKI" class="cls-2" d="M1371,1164l67,72-50,46-66-74Z"/>
  <path id="L-A1" class="cls-1" d="M948.111,1252.84l59.289,79.34-3.88,4.11L943.2,1255.98l-5.855,5.17,60.291,79.31-5.912,3.17-59.291-79.34-6.883,4.2,62.319,80.25-4.913,3.15-63.318-80.23-3.884,4.12,60.319,80.3-3.884,4.12-62.318-80.25-4.912,3.14,61.347,81.28-4.883,4.14-61.348-81.28-5.883,4.17,61.319,80.28-5.855,5.17-59.349-81.34-5.911,3.17,60.348,81.31-5.855,5.17-58.406-83.37-4.912,3.15,9.453,15.73,78.339-59.26,9.4,13.74-78.31,60.26,9.368,12.74,77.311-60.24,10.367,12.71-78.31,60.26,9.368,12.74,80.338-59.32"/>
  <path id="L-A" class="cls-2" d="M952.994,1248.7l59.346,81.34-79.335,59.29L874.6,1305.96Z"/>
  <path id="L-B1" class="cls-1" d="M860.96,1312.91L919.228,1393l-3.937,4.06-59.283-81.08-5.92,5.1,59.267,80.08-5.952,3.09-58.268-80.09-6.936,4.11,61.283,81.04-4.952,3.08-62.283-81.03-3.936,4.06,59.283,81.08-3.937,4.06-61.283-81.04-4.952,3.07,60.3,82.07-4.937,4.07-60.3-82.06-5.937,4.1,60.283,81.06-5.92,5.09-58.3-82.09-5.952,3.09,59.3,82.08-5.921,5.09-57.33-84.1-4.953,3.07,9.251,15.86,79.093-58.25,9.219,13.86-79.077,59.25,9.2,12.85,78.078-59.23,10.2,12.84-79.077,59.25,9.2,12.86,81.093-58.29"/>
  <path id="L-B" class="cls-2" d="M865.9,1308.83l58.3,82.09L844.1,1449.19l-57.331-84.11Z"/>
  <path id="L-C1" class="cls-1" d="M773.865,1375.15l59.2,79.21-3.878,4.11-60.228-80.19-5.846,5.17,60.2,79.18-5.9,3.17-59.2-79.22-6.872,4.19,62.224,80.13-4.905,3.14-63.222-80.1-3.878,4.11,60.228,80.18-3.878,4.11-62.224-80.13-4.9,3.14,61.254,81.15-4.876,4.13L725.9,1409.48l-5.875,4.16,61.226,80.16-5.845,5.16-59.259-81.21-5.9,3.17L770.5,1502.1l-5.846,5.16-58.317-83.24-4.905,3.14,9.439,15.71,78.22-59.17,9.382,13.72-78.191,60.17,9.353,12.71,77.193-60.14,10.352,12.69-78.191,60.17,9.353,12.72,80.216-59.23"/>
  <path id="L-C" class="cls-2" d="M778.741,1371.01L838,1452.22l-79.217,59.2-58.318-83.23Z"/>
  <path id="L-D1" class="cls-1" d="M689.886,1436.21l56.913,80.88-3.993,3.99-57.912-81.87-5.991,4.99,57.912,80.87-5.991,3-56.914-80.88-6.989,4,59.909,81.87-4.993,3-60.907-81.88-3.994,4,57.912,81.87-3.994,3.99-59.909-81.87-4.992,3,58.91,82.87-4.992,3.99-58.911-82.87-5.99,3.99,58.91,81.88-5.991,4.99-56.913-82.87-5.991,2.99,57.912,82.87-5.991,5-55.915-84.87L616,1486.13l8.987,15.98,79.878-56.91,8.987,13.98-79.879,57.91,8.986,12.98,78.88-57.91,9.985,12.97-79.878,57.91,8.986,12.98,81.876-56.91"/>
  <path id="L-D" class="cls-2" d="M694.878,1432.22l56.914,82.87L670.915,1572,615,1487.13Z"/>
  <path id="L-H1" class="cls-1" d="M1009.08,1341.02l62.47,76.74-3.71,4.26-63.53-77.67-5.634,5.41,63.464,76.67-5.77,3.41L993.9,1353.1l-6.7,4.47,65.535,77.53-4.78,3.34-66.525-77.46-3.708,4.27,63.533,77.66-3.7,4.27-65.533-77.53-4.774,3.34,64.607,78.6-4.71,4.33-64.6-78.59-5.7,4.4,64.532,77.6-5.63,5.4L953.141,1386l-5.771,3.41,63.61,78.66-5.63,5.4-61.757-80.79-4.774,3.34,10.088,15.31,75.753-62.39,9.95,13.32-75.684,63.39,9.878,12.33,74.686-63.32,10.88,12.25-75.687,63.4,9.878,12.32,77.749-62.53"/>
  <path id="L-H" class="cls-2" d="M1013.78,1336.68l62.62,78.73-76.754,62.47-61.753-80.8Z"/>
  <path id="L-G1" class="cls-1" d="M923.778,1403.08l59.386,79.15-3.873,4.12-60.415-80.12-5.84,5.18,60.384,79.12-5.9,3.17-59.385-79.15-6.87,4.21,62.412,80.06-4.9,3.15-63.41-80.03-3.874,4.11,60.415,80.12-3.873,4.12-62.412-80.06-4.9,3.15,61.444,81.09-4.872,4.14-61.444-81.09-5.871,4.18,61.414,80.09-5.84,5.18L866.1,1445.82l-5.9,3.17,60.446,81.12-5.841,5.18L856.3,1452.11l-4.9,3.15,9.474,15.7,78.162-59.35,9.413,13.71-78.131,60.35,9.383,12.71,77.132-60.32,10.382,12.68-78.131,60.34,9.383,12.71,80.159-59.41"/>
  <path id="L-G" class="cls-2" d="M928.65,1398.94l59.446,81.15-79.16,59.38-58.509-83.18Z"/>
  <path id="L-L1" class="cls-1" d="M1076.63,1429.49l58.92,79.58-3.93,4.08-59.94-80.56-5.9,5.12,59.92,79.56-5.95,3.12-58.92-79.58-6.93,4.14,61.95,80.51-4.95,3.1-62.95-80.49-3.92,4.07,59.94,80.56-3.92,4.07-61.95-80.51-4.95,3.1,60.97,81.53-4.92,4.1-60.97-81.53-5.93,4.11,60.95,80.54-5.91,5.11-58.96-81.57-5.95,3.12,59.97,81.55-5.91,5.12-58-83.59-4.95,3.1,9.37,15.76,78.95-58.56,9.33,13.77-78.92,59.56,9.3,12.78,77.93-59.54,10.31,12.75-78.93,59.57,9.31,12.77,80.95-58.61"/>
  <path id="L-L" class="cls-2" d="M1081.55,1425.4l58.97,81.57-79.96,58.59-58-83.59Z"/>
  <path id="L-F1" class="cls-1" d="M836.727,1464.34l59.15,79.14-3.875,4.1-60.175-80.11-5.841,5.16,60.147,79.11-5.9,3.16-59.151-79.14-6.866,4.19,62.17,80.05-4.9,3.13-63.168-80.02-3.875,4.1,60.176,80.11-3.875,4.1-62.17-80.05-4.9,3.14,61.2,81.07-4.872,4.13-61.2-81.07-5.87,4.16,61.173,80.08-5.84,5.15-59.207-81.13-5.9,3.16,60.2,81.11-5.841,5.15-58.266-83.15-4.9,3.13,9.431,15.7,78.152-59.12,9.374,13.71-78.123,60.11,9.345,12.7,77.126-60.08L880.007,1512l-78.123,60.11,9.345,12.7,80.146-59.17"/>
  <path id="L-F" class="cls-2" d="M841.6,1460.21l59.207,81.13-79.149,59.14-58.267-83.15Z"/>
  <path id="L-E1" class="cls-1" d="M751.821,1524.34l56.865,80.8-3.991,3.99-57.862-81.8-5.986,4.99,57.862,80.8-5.985,2.99-56.865-80.8-6.983,3.99,59.857,81.8-4.988,2.99L722.89,1542.3l-3.99,3.99,57.862,81.79-3.991,3.99-59.857-81.79-4.988,2.99,58.859,82.79-4.988,3.99-58.859-82.79-5.986,3.99,58.86,81.79-5.986,4.99-56.864-82.79-5.986,2.99,57.862,82.79-5.986,4.99-55.866-84.79-4.988,3,8.978,15.96,79.809-56.86,8.979,13.96-79.809,57.86,8.978,12.97,78.812-57.86,9.976,12.97-79.809,57.85,8.978,12.97,81.805-56.86"/>
  <path id="L-E" class="cls-2" d="M756.809,1520.35l56.865,82.79L732.867,1660,677,1575.21Z"/>
  <path id="L-K1" class="cls-1" d="M990,1491l56,78-4,5-59-79-7,4,60,79-5,5-59-80-6,3,59,81-4,4-61-80-5,4,60,80-5,4-61-81-5,4,62,82-7,2-61-80-5,4,59,80-8,1-56-78-6,5,54,73-8,2-50-72-5,5,8,12,84-59,9,13-83,60,9,13,84-59,10,14-83,57,8,14,85-59"/>
  <path id="L-K" class="cls-2" d="M995,1486l-83,60,51,69,41-9,50-41Z"/>
  <path id="L-I1" class="cls-1" d="M810,1617l23,33-7,1-22-30-5,4,20,29-6,1-19-27-7,3,18,26-6,1-18-22-5,3,17,21-8,2-13-19-6,4,12,17-7,1-10-14-5,3,9,14-6,1-8-12-6,5,6,10,18-4,56-44,11,14-27,19"/>
  <path id="L-I" class="cls-2" d="M817,1611l26,36-98,27-6-8Z"/>
  <path id="L-J1" class="cls-1" d="M902,1553l48,67-8,1-46-64-6,3,45,62-7,1-43-60-6,5,43,58-9,2-39-57-5,3,38,54-7,3-37-53-5,4,35,51-7,1-35-48-5,5,34,44-7,3-32-44-6,4,31,41-8,2-28-39-4,3,8,14,82-57,10,14-84,56,8,12,13-6,71-48,10,13-36,26"/>
  <path id="L-J" class="cls-2" d="M907,1549l48,69-106,26-25-39Z"/>
  <path class="cls-1" d="M1528,1234l-139,129-47-8,46-44,53,59,31-28-54-59,30-27,51,59,31-28-52-56"/>
  <path id="MauseoleumBLK12-2" data-name="MauseoleumBLK12" class="cls-2" d="M1503,1206l54,57-117,108-99-14Z"/>
  <path class="cls-1" d="M1807,1094l-20-34-33,24,22,34-33,20-21-30-33,21,22,34-33,22-21-32-40,26,33,25-11,28-37-16-15,37,35,14-15,42-8,4-25-28-30,27,27,29-29,27-26-28-30,27,28,29-29,27-28-30-10,11-25-3-6,39-39-5,7-38-38-6-8,38-38-5,6-38-39-7-5,39-41-6,7-38"/>
  <path id="MauseoleumBLK13-2" data-name="MauseoleumBLK13" class="cls-2" d="M1820,1039l-203,140-42,105-128,120-261-35-6,38,280,40,141-134,6-4,44-105,190-131Z"/>
  <path class="cls-2" d="M1282,359l66,53-3,82-98-106Z"/>
  <path class="cls-1" d="M1311,384l-38,33,28,28,42-36"/>
  <path class="cls-1" d="M1856,998l-28,25-28-30,29-23-27-31-27,25-28-28,28-25-26-32-27,27-27-29,29-25-27-29-28,26-27-30,28-22-27-31-28,24-27-28,29-27-26-28-28,25-27-27,28-27-28-29-28,27-26-28,28-28-27-28-26,25-28-29,28-25-25-29-28,26-27-30,28-25-1-16h-38l5-41h35l2-38-37-2v-9l-9-6,22-29-30-26-22,30"/>
  <path id="MauseoleumBLK1-2" data-name="MauseoleumBLK1" class="cls-2" d="M1852,1056l38-19-34-40L1405,505l4-122-83-69-28,27,73,59-5,118,10,12,452,494Z"/>
  <path class="cls-1" d="M1282,326l-24-27-31,26,23,28-31,26-25-30-30,25,25,32-28,24-26-31-28,22,26,32-31,27-27-35-31,25,27,34-32,23-26-33-31,28,27,30-32,26-29-31-29,25,24,31-30,25-25-32-41,34,26,26,29-26,6,5,23,23-29,27,28,30,28-29,28,28-29,28,29,30,29-28,29,27-30,27,27,29,28-28,29,30-29,26"/>
  <path id="Mauseoleum1-2" data-name="Mauseoleum1" class="cls-2" d="M1312,303l-30-23L848,631l244,249,29-29L906,633l230-181Z"/>
  <path class="cls-1" d="M1972,1147s-46.5,3.92-83,49c0,0-31.56,37.47-136,57,0,0-61.95,1.63-258,201,0,0-23.06,38.45-52,24,0,0-47.08-11.94-69-6,0,0-25.54-2.64-55-18,0,0-46.4-8.69-106-4,0,0-38.16-6.69-32-58"/>
  <path class="cls-1" d="M2008,1193s-60.62-7.83-89,37c0,0-48.45,52.07-132,60,0,0-117.98,16.51-226,169,0,0-66.6,102.54-149,61,0,0-37.3-10.29-63-5,0,0-68.21,2.98-101-19,0,0-35.25-17.04-69-11,0,0-27.15,9.71-113-83"/>
  <path id="Border" class="cls-4" d="M2041,1239l-769,449-30-146L700,1685l-62-156-146-40-211,59-38,41-18,69-27-37-8,15L49,1467l71-90,221-129,156-24,10,23,106-61,434-322,46,19L848,633l433-355,128,104-4,124,449,490,36,42Z"/>
</svg>
